<svg width="22" height="24" viewBox="0 0 22 24" fill="none" xmlns="http://www.w3.org/2000/svg">
<path d="M9.11533 16.7335C9.83273 16.656 10.5934 16.9582 10.5934 16.377C10.5934 16.1802 10.4551 16.0205 10.2847 16.0205H9.11533C8.94487 16.0205 8.80664 16.1802 8.80664 16.377C8.80664 16.5739 8.94483 16.7335 9.11533 16.7335Z" fill="black"/>
<path d="M12.0067 9.69643L8.901 7.35951C8.80604 7.28795 8.68469 7.28274 8.58539 7.34472C8.48575 7.4072 8.42383 7.52749 8.42383 7.65825V12.3319C8.42383 12.4626 8.48579 12.5829 8.58539 12.6455C8.68439 12.7073 8.80561 12.7025 8.901 12.6307L12.0067 10.2939C12.0942 10.2281 12.1469 10.1157 12.1469 9.99522C12.1469 9.87468 12.0942 9.76223 12.0067 9.69643ZM9.0412 11.6741V8.31602L11.2727 9.99512L9.0412 11.6741Z" fill="black"/>
<path d="M20.4313 0H13.144C12.6442 0 12.2375 0.435008 12.2375 0.969613V3.82357C10.7631 3.82357 4.39459 3.82357 1.44156 3.82357C0.646637 3.82357 0 4.57052 0 5.48857V16.861C0 17.6885 0.583 18.3618 1.29955 18.3618C1.83567 18.3617 -0.642511 18.3623 6.54268 18.3606C6.78305 18.9805 7.45804 21.0385 6.57276 22.5577H3.95265C3.7822 22.5577 3.64396 22.7173 3.64396 22.9142C3.64396 23.111 3.7822 23.2707 3.95265 23.2707H15.8868C16.0572 23.2707 16.1954 23.111 16.1954 22.9142C16.1954 22.7173 16.0572 22.5577 15.8868 22.5577H12.2992C11.4162 21.044 12.0888 18.9833 12.3291 18.3606H17.1331C17.8488 18.3606 18.4311 17.6881 18.4311 16.8616C18.4311 15.9205 18.4308 20.2708 18.4318 7.65766H20.4314C20.9291 7.65766 21.3339 7.22056 21.3339 6.68338V0.969613C21.3338 0.435008 20.929 0 20.4313 0ZM11.5776 22.5577H8.26173C8.81637 21.2752 8.6371 19.6826 8.18245 18.3606H11.6569C11.3586 19.228 10.9099 21.0138 11.5776 22.5577ZM17.8136 16.8617C17.8136 17.2951 17.5084 17.6476 17.1331 17.6476C12.5037 17.6476 8.01453 17.6476 2.26763 17.6476C1.89234 17.6476 1.58696 17.2951 1.58696 16.8617V15.1075H17.8136V16.8617ZM17.8144 14.3938H1.58666V5.48857C1.58666 4.96354 1.95641 4.53657 2.41085 4.53657H12.2375V6.68343C12.2375 7.22061 12.6441 7.65771 13.1439 7.65771H14.2748L14.2041 9.31382C14.1981 9.45709 14.267 9.59058 14.3788 9.65276C14.4907 9.71489 14.6241 9.69345 14.7171 9.59847L16.6155 7.65771H17.8144V14.3938ZM20.7164 6.68338C20.7164 6.82506 20.5859 6.94465 20.4313 6.94465H16.4985C16.4231 6.94465 16.3503 6.97651 16.294 7.03412L14.8569 8.50331L14.9074 7.31872C14.9159 7.11521 14.7754 6.94465 14.599 6.94465H13.1439C12.9872 6.94465 12.8548 6.82506 12.8548 6.68338V0.969613C12.8548 0.830516 12.9872 0.713005 13.1439 0.713005H20.4313C20.5832 0.713005 20.7164 0.832947 20.7164 0.969613V6.68338Z" fill="black"/>
<path d="M16.7986 4.02661C16.3759 4.02661 15.9769 4.21707 15.6742 4.5638C15.3743 4.91003 15.2091 5.37064 15.2091 5.86048C15.2091 6.05734 15.3473 6.21699 15.5178 6.21699H18.1035C18.274 6.21699 18.4122 6.05734 18.4122 5.86048C18.4122 4.84929 17.699 4.02661 16.7986 4.02661ZM15.8763 5.50398C15.9232 5.34176 16.0025 5.19308 16.1099 5.06912C16.2953 4.85658 16.5398 4.73962 16.8226 4.73962C17.2506 4.73962 17.615 5.06009 17.7444 5.50398H15.8763Z" fill="black"/>
<path d="M16.8109 3.6505C17.3433 3.6505 17.7764 3.15142 17.7764 2.53781C17.7764 1.92297 17.3433 1.42285 16.8109 1.42285C16.2797 1.42285 15.8477 1.92297 15.8477 2.53781C15.8476 3.15142 16.2797 3.6505 16.8109 3.6505ZM16.8109 2.13586C17.0028 2.13586 17.159 2.31619 17.159 2.53781C17.159 2.7582 17.0028 2.93749 16.8109 2.93749C16.6203 2.93749 16.465 2.7582 16.465 2.53781C16.465 2.31619 16.6202 2.13586 16.8109 2.13586Z" fill="black"/>
</svg>
