<svg width="22" height="22" viewBox="0 0 22 22" fill="none" xmlns="http://www.w3.org/2000/svg">
<g clip-path="url(#clip0_1_1112)">
<path d="M16.8667 0H5.13336C4.5269 0 4.03336 0.493539 4.03336 1.1C4.03336 1.70646 4.5269 2.2 5.13336 2.2H16.8667C17.4732 2.2 17.9667 1.70646 17.9667 1.1C17.9667 0.493539 17.4731 0 16.8667 0ZM16.8667 1.46665H5.13336C4.93132 1.46665 4.7667 1.30238 4.7667 1.1C4.7667 0.897617 4.93132 0.733348 5.13336 0.733348H16.8667C17.0687 0.733348 17.2334 0.897617 17.2334 1.1C17.2334 1.30238 17.0687 1.46665 16.8667 1.46665Z" fill="black"/>
<path d="M16.8667 19.8H5.13336C4.5269 19.8 4.03336 20.2936 4.03336 20.9C4.03336 21.5065 4.5269 22 5.13336 22H16.8667C17.4732 22 17.9667 21.5065 17.9667 20.9C17.9667 20.2936 17.4731 19.8 16.8667 19.8ZM16.8667 21.2667H5.13336C4.93132 21.2667 4.7667 21.1024 4.7667 20.9C4.7667 20.6977 4.93132 20.5334 5.13336 20.5334H16.8667C17.0687 20.5334 17.2334 20.6977 17.2334 20.9C17.2334 21.1024 17.0687 21.2667 16.8667 21.2667Z" fill="black"/>
<path d="M13.6129 9.6389C15.4748 7.77698 16.5 5.30159 16.5 2.66894V1.83333C16.5 1.63056 16.3357 1.46667 16.1333 1.46667H5.86665C5.66427 1.46667 5.5 1.63056 5.5 1.83333V2.66894C5.5 5.30198 6.52519 7.77698 8.38677 9.6389L8.75527 10.0074C9.01669 10.2688 9.16665 10.6304 9.16665 11C9.16665 11.3696 9.01669 11.7311 8.75561 11.9926L8.38711 12.3611C6.52519 14.223 5.5 16.698 5.5 19.331V20.1666C5.5 20.3694 5.66427 20.5333 5.86665 20.5333H16.1333C16.3357 20.5333 16.5 20.3694 16.5 20.1666V19.331C16.5 16.6984 15.4748 14.223 13.6128 12.3611L13.2443 11.9926C12.9792 11.7274 12.8333 11.3751 12.8333 11C12.8333 10.6249 12.9792 10.2725 13.2443 10.0074L13.6129 9.6389ZM12.7259 9.48894C12.3222 9.89229 12.1 10.4287 12.1 11C12.1 11.5712 12.3222 12.1077 12.7259 12.511L13.0944 12.8795C14.8177 14.6029 15.7667 16.8941 15.7667 19.331V19.8H6.23335V19.331C6.23335 16.8938 7.18227 14.6029 8.90523 12.8795L9.27373 12.511C9.67781 12.1077 9.9 11.5709 9.9 11C9.9 10.4291 9.67781 9.89229 9.27412 9.48894L8.90562 9.12044C7.18227 7.39709 6.23335 5.10578 6.23335 2.66894V2.19998H15.7667V2.66894C15.7667 5.10583 14.8178 7.39709 13.0944 9.12044L12.7259 9.48894Z" fill="black"/>
<path d="M14.0981 6.17728C14.0611 6.08417 13.9349 5.86671 13.5661 5.86671C11.6609 5.86671 10.812 5.45859 10.4754 5.21513C10.0556 4.91117 9.51694 4.83159 9.03328 5.00282C8.57167 5.16597 8.23359 5.52897 8.10636 5.99832C8.07336 6.12044 8.06748 6.19963 8.06748 6.19963C8.06198 6.27186 8.07775 6.34998 8.11332 6.4134C8.4569 7.02244 8.85325 7.66482 9.42378 8.23536L9.7919 8.60386C10.3342 9.14544 10.6327 9.86628 10.6327 10.6334C10.6327 10.8361 10.7969 11 10.9993 11C11.2017 11 11.366 10.8361 11.366 10.6334C11.366 9.86667 11.6644 9.14578 12.2064 8.60386L12.5752 8.23497C12.6658 8.14478 12.7839 8.03332 12.9137 7.91159C13.8616 7.02024 14.2602 6.58648 14.0981 6.17728ZM12.4107 7.3774C12.2751 7.50536 12.1511 7.62198 12.0565 7.71655L11.6876 8.08544C11.4028 8.36998 11.1718 8.69409 10.999 9.04536C10.8263 8.69409 10.5953 8.36998 10.3104 8.08544L9.94225 7.71694C9.49198 7.26633 9.16236 6.77021 8.81952 6.17217C8.91009 5.86602 9.14475 5.74132 9.27786 5.69401C9.53378 5.60344 9.8209 5.64636 10.0453 5.80917C10.5124 6.14725 11.4335 6.54578 13.1979 6.59494C12.9713 6.85013 12.6157 7.1849 12.4107 7.3774Z" fill="black"/>
<path d="M15.0094 18.6718C14.9174 17.483 14.4407 16.9895 13.8893 16.4175C13.8148 16.3401 13.7371 16.2599 13.6575 16.1748C13.197 15.6827 12.5465 15.4004 11.8722 15.4004H10.1302C9.45625 15.4004 8.8054 15.6827 8.34486 16.1748C8.26529 16.2599 8.18794 16.3398 8.11348 16.4172C7.56163 16.9892 7.08498 17.483 6.99333 18.6722C6.98525 18.7741 7.02044 18.8745 7.08975 18.9497C7.1594 19.0245 7.2566 19.0671 7.35886 19.0671H14.6438C14.7457 19.0671 14.8432 19.0245 14.9129 18.9494C14.9822 18.8742 15.0171 18.7734 15.0094 18.6718ZM7.77652 18.3337C7.90083 17.6935 8.1971 17.387 8.64148 16.9265C8.71848 16.8465 8.7984 16.7633 8.88056 16.6757C9.20287 16.331 9.65825 16.1337 10.1302 16.1337H11.8722C12.3445 16.1337 12.7999 16.3314 13.1222 16.6753C13.2047 16.764 13.2846 16.8465 13.362 16.9269C13.806 17.3874 14.1019 17.6939 14.2266 18.3337H7.77652Z" fill="black"/>
<path d="M10.9877 11.7334C10.7854 11.7334 10.6211 11.8973 10.6211 12.1001V12.4667C10.6211 12.6695 10.7854 12.8334 10.9877 12.8334C11.1901 12.8334 11.3544 12.6695 11.3544 12.4667V12.1001C11.3544 11.8973 11.1901 11.7334 10.9877 11.7334Z" fill="black"/>
<path d="M10.9877 13.5664C10.7854 13.5664 10.6211 13.7303 10.6211 13.9331V14.2997C10.6211 14.5025 10.7854 14.6664 10.9877 14.6664C11.1901 14.6664 11.3544 14.5025 11.3544 14.2997V13.9331C11.3544 13.7303 11.1901 13.5664 10.9877 13.5664Z" fill="black"/>
</g>
<defs>
<clipPath id="clip0_1_1112">
<rect width="22" height="22" fill="white"/>
</clipPath>
</defs>
</svg>
