<svg width="21" height="21" viewBox="0 0 21 21" fill="none" xmlns="http://www.w3.org/2000/svg">
<g clip-path="url(#clip0_1_1102)">
<path d="M6.98677 12.3726C7.04944 12.4353 7.13344 12.4688 7.21875 12.4688C7.26108 12.4688 7.30373 12.4605 7.34442 12.4438C7.46681 12.393 7.54688 12.2732 7.54688 12.1406V10.1719H8.85938C9.76402 10.1719 10.5 9.43589 10.5 8.53125V5.25C10.5 5.06887 10.353 4.92188 10.1719 4.92188C9.99075 4.92188 9.84375 5.06887 9.84375 5.25V8.53125C9.84375 9.07397 9.40209 9.51562 8.85938 9.51562H7.21875C7.03762 9.51562 6.89062 9.66263 6.89062 9.84375V11.3485L5.15386 9.61176C5.0925 9.55008 5.00883 9.51562 4.92188 9.51562H2.29688C1.75416 9.51562 1.3125 9.07397 1.3125 8.53125V2.29688C1.3125 1.75416 1.75416 1.3125 2.29688 1.3125H8.85938C9.40209 1.3125 9.84375 1.75416 9.84375 2.29688V3.9375C9.84375 4.11862 9.99075 4.26562 10.1719 4.26562C10.353 4.26562 10.5 4.11862 10.5 3.9375V2.29688C10.5 1.39223 9.76402 0.65625 8.85938 0.65625H2.29688C1.39223 0.65625 0.65625 1.39223 0.65625 2.29688V8.53125C0.65625 9.43589 1.39223 10.1719 2.29688 10.1719H4.78603L6.98677 12.3726Z" fill="black"/>
<path d="M5.57812 4.59375H5.08594C4.90481 4.59375 4.75781 4.74075 4.75781 4.92188V6.89062C4.75781 7.07175 4.90481 7.21875 5.08594 7.21875H5.57812C6.03028 7.21875 6.39844 6.85059 6.39844 6.39844C6.39844 6.21305 6.33445 6.04373 6.23011 5.90625C6.33412 5.76877 6.39844 5.59945 6.39844 5.41406C6.39844 4.96191 6.03028 4.59375 5.57812 4.59375ZM5.41406 5.25H5.57812C5.66869 5.25 5.74219 5.3235 5.74219 5.41406C5.74219 5.50463 5.66869 5.57812 5.57812 5.57812H5.41406V5.25ZM5.57812 6.5625H5.41406V6.23438H5.57812C5.66869 6.23438 5.74219 6.30788 5.74219 6.39844C5.74219 6.489 5.66869 6.5625 5.57812 6.5625Z" fill="black"/>
<path d="M3.28125 8.20312C3.28125 8.38425 3.42825 8.53125 3.60938 8.53125H7.54688C7.728 8.53125 7.875 8.38425 7.875 8.20312V2.29688C7.875 2.11575 7.728 1.96875 7.54688 1.96875H4.26562C3.72291 1.96875 3.28125 2.41041 3.28125 2.95312V6.89062C3.28125 7.07175 3.42825 7.21875 3.60938 7.21875C3.7905 7.21875 3.9375 7.07175 3.9375 6.89062V3.87713C4.04053 3.91387 4.15013 3.9375 4.26562 3.9375H7.21875V7.875H3.60938C3.42825 7.875 3.28125 8.022 3.28125 8.20312ZM4.26562 3.28125C4.08483 3.28125 3.9375 3.13392 3.9375 2.95312C3.9375 2.77233 4.08483 2.625 4.26562 2.625H7.21875V3.28125H4.26562Z" fill="black"/>
<path d="M7.875 16.7344C7.875 16.1917 7.43334 15.75 6.89062 15.75C6.34791 15.75 5.90625 16.1917 5.90625 16.7344C5.90625 17.2771 6.34791 17.7188 6.89062 17.7188C7.43334 17.7188 7.875 17.2771 7.875 16.7344ZM6.5625 16.7344C6.5625 16.5536 6.70983 16.4062 6.89062 16.4062C7.07142 16.4062 7.21875 16.5536 7.21875 16.7344C7.21875 16.9152 7.07142 17.0625 6.89062 17.0625C6.70983 17.0625 6.5625 16.9152 6.5625 16.7344Z" fill="black"/>
<path d="M20.0156 16.0781C19.8345 16.0781 19.6875 16.2251 19.6875 16.4062V18.375C19.6875 19.0988 19.0989 19.6875 18.375 19.6875H14.7656V18.6746L18.0764 18.3737C18.2454 18.3583 18.375 18.2165 18.375 18.0469V15.4219C18.375 15.2407 18.228 15.0937 18.0469 15.0937C17.8658 15.0937 17.7188 15.2407 17.7188 15.4219V17.7473L14.4221 18.0469H13.7002C13.6395 17.7663 13.5453 17.4973 13.4187 17.2439C13.2264 16.8597 13.125 16.4299 13.125 16.0007V14.7656C13.125 14.0487 13.5266 13.3983 14.1356 13.0554C14.2561 13.6556 14.7866 14.1094 15.4219 14.1094C16.2773 14.1094 17.0048 13.5604 17.2758 12.7969H17.3906C18.6572 12.7969 19.6875 13.8272 19.6875 15.0937C19.6875 15.2749 19.8345 15.4219 20.0156 15.4219C20.1968 15.4219 20.3438 15.2749 20.3438 15.0937C20.3438 13.4656 19.0188 12.1406 17.3906 12.1406V11.5789C17.6604 11.2727 17.8592 10.9026 17.9632 10.4905C17.9914 10.4924 18.0183 10.5 18.0469 10.5C18.7707 10.5 19.3594 9.8375 19.3594 9.02342C19.3594 8.9975 19.3538 8.97322 19.3525 8.94763C19.5687 8.56142 19.6875 8.13552 19.6875 7.70469C19.6875 6.67011 19.1638 5.72511 18.2864 5.17682L17.7683 4.85296C16.8099 4.25413 15.607 4.23149 14.7043 4.79586C14.1091 5.16796 13.7813 5.67885 13.7813 6.23436C13.7813 6.32656 13.7941 6.41975 13.8141 6.51294C13.399 6.94475 13.1007 7.4691 12.939 8.03872C12.6404 7.73619 12.4688 7.32866 12.4688 6.89061C12.4688 6.28063 12.8038 5.72446 13.3435 5.43931C13.5037 5.35466 13.565 5.15614 13.4804 4.99602C13.3957 4.83589 13.1975 4.77486 13.0371 4.85919C12.2817 5.25852 11.8125 6.03683 11.8125 6.89061C11.8125 7.65383 12.1853 8.3488 12.81 8.77831C12.8044 8.861 12.7969 8.94303 12.7969 9.02638V9.84374C12.7969 10.8127 13.3262 11.6589 14.1094 12.1137V12.3424C13.5243 12.5813 13.0489 13.0177 12.7647 13.565L10.8905 15.4389L10.8068 14.6029C10.7228 13.7602 10.0213 13.125 9.17439 13.125H4.59377C4.13111 13.125 3.68748 13.3219 3.37708 13.6651C3.06667 14.008 2.91508 14.4687 2.96102 14.929L3.0775 16.0958C3.09555 16.2763 3.25895 16.4089 3.4368 16.3898C3.61694 16.3718 3.74852 16.211 3.7308 16.0305L3.61431 14.8637C3.58642 14.5835 3.67502 14.3141 3.86369 14.1054C4.05302 13.8964 4.31223 13.7812 4.59377 13.7812H9.17439C9.68233 13.7812 10.1033 14.1622 10.1538 14.6678L10.6198 19.3269C10.6293 19.4204 10.5998 19.5103 10.5368 19.5799C10.4738 19.6491 10.3875 19.6875 10.2936 19.6875H4.98752C4.47958 19.6875 4.05859 19.3062 4.00806 18.8009L3.86172 17.3361C3.84367 17.156 3.68486 17.0248 3.50242 17.0421C3.32228 17.0602 3.1907 17.221 3.20842 17.4014L3.35477 18.8662C3.43942 19.7085 4.14128 20.3437 4.98752 20.3437H18.375C19.4608 20.3437 20.3438 19.4608 20.3438 18.375V16.4062C20.3438 16.2251 20.1968 16.0781 20.0156 16.0781ZM15.4219 13.4531C15.06 13.4531 14.7656 13.1588 14.7656 12.7969V12.3824C14.976 12.4369 15.1948 12.4687 15.4219 12.4687C15.899 12.4687 16.3469 12.3398 16.7344 12.116V12.1406C16.7344 12.8645 16.1457 13.4531 15.4219 13.4531ZM18.0469 9.84374C17.685 9.84374 17.3906 9.47558 17.3906 9.02342C17.3906 8.57127 17.685 8.20311 18.0469 8.20311C18.4088 8.20311 18.7031 8.57127 18.7031 9.02342C18.7031 9.47558 18.4088 9.84374 18.0469 9.84374ZM17.9386 5.73331C18.6227 6.16086 19.0313 6.89783 19.0313 7.70469C19.0313 7.80903 19.0191 7.91305 19.0014 8.01608C18.7615 7.72897 18.4239 7.54686 18.0469 7.54686C18.0387 7.54686 18.0311 7.54949 18.0229 7.54949C17.9222 6.52606 17.3595 5.61158 16.4939 5.06919C16.8138 5.11611 17.1311 5.22833 17.4205 5.40946L17.9386 5.73331ZM15.0521 5.35236C15.1305 5.30347 15.2125 5.26213 15.2962 5.22472L15.7799 5.4321C16.6291 5.79599 17.2161 6.56675 17.3565 7.45991C17.1793 7.37296 16.9844 7.32374 16.7852 7.32833C15.9049 7.34999 15.0636 6.99266 14.4723 6.34166C14.4648 6.33346 14.4546 6.32985 14.4464 6.3223C14.4421 6.2931 14.4375 6.26356 14.4375 6.23436C14.4375 5.91346 14.6557 5.6001 15.0521 5.35236ZM13.4531 9.84374V9.02638C13.4531 8.2835 13.7324 7.56983 14.2278 7.02514C14.9268 7.66367 15.8478 8.00985 16.803 7.98458C16.8955 7.979 16.987 8.00296 17.0707 8.04561C16.864 8.3068 16.7344 8.64706 16.7344 9.02342C16.7344 9.31119 16.8108 9.57796 16.9382 9.80535L16.6855 9.98713C16.2192 10.3225 15.6686 10.5 15.0938 10.5C14.9126 10.5 14.7656 10.647 14.7656 10.8281C14.7656 11.0092 14.9126 11.1562 15.0938 11.1562C15.8071 11.1562 16.4899 10.9361 17.0688 10.5197L17.3211 10.3382C17.1002 11.1943 16.3315 11.8125 15.4219 11.8125C14.3361 11.8125 13.4531 10.9295 13.4531 9.84374ZM11.6665 18.375L12.7332 17.3083C12.7647 17.385 12.7943 17.4628 12.8313 17.5373C12.9232 17.721 12.9859 17.9186 13.0351 18.1213C12.8707 18.1771 12.7221 18.2631 12.5941 18.375H11.6665ZM12.4688 14.7886V16.0007C12.4688 16.1979 12.4917 16.3938 12.5255 16.5883L11.1438 17.9701L10.9751 16.2825L12.4688 14.7886ZM11.2498 19.0312H12.1872C12.1597 19.1369 12.1406 19.2455 12.1406 19.3594V19.6875H11.2193C11.2672 19.552 11.2875 19.4069 11.2731 19.2613L11.2498 19.0312ZM12.7969 19.3594C12.7969 18.9974 13.0912 18.7031 13.4531 18.7031H14.1094V19.6875H12.7969V19.3594Z" fill="black"/>
<path d="M14.1094 9.1875C14.2906 9.1875 14.4375 9.04059 14.4375 8.85938C14.4375 8.67816 14.2906 8.53125 14.1094 8.53125C13.9282 8.53125 13.7812 8.67816 13.7812 8.85938C13.7812 9.04059 13.9282 9.1875 14.1094 9.1875Z" fill="black"/>
<path d="M15.75 9.1875C15.9312 9.1875 16.0781 9.04059 16.0781 8.85938C16.0781 8.67816 15.9312 8.53125 15.75 8.53125C15.5688 8.53125 15.4219 8.67816 15.4219 8.85938C15.4219 9.04059 15.5688 9.1875 15.75 9.1875Z" fill="black"/>
</g>
<defs>
<clipPath id="clip0_1_1102">
<rect width="21" height="21" fill="white"/>
</clipPath>
</defs>
</svg>
