<svg width="20" height="20" viewBox="0 0 20 20" fill="none" xmlns="http://www.w3.org/2000/svg">
<path d="M15.8159 14.0091C15.5851 14.547 15.3 15.0599 14.965 15.5399C14.5175 16.1791 14.15 16.6207 13.8684 16.8666C13.4309 17.2682 12.9609 17.4749 12.4584 17.4866C12.0984 17.4866 11.6634 17.3841 11.1567 17.1757C10.6484 16.9682 10.1817 16.8666 9.75421 16.8666C9.30671 16.8666 8.82671 16.9682 8.31255 17.1757C7.79921 17.3841 7.38421 17.4932 7.06671 17.5032C6.58588 17.5241 6.10505 17.3124 5.62588 16.8666C5.32005 16.5999 4.93755 16.1416 4.47838 15.4932C3.98671 14.8024 3.58255 13.9982 3.26588 13.0841C2.92671 12.0949 2.75671 11.1382 2.75671 10.2116C2.75671 9.15074 2.98588 8.2349 3.44505 7.46824C3.79234 6.86613 4.28884 6.3636 4.88671 6.00907C5.47627 5.65546 6.14929 5.46506 6.83671 5.4574C7.22005 5.4574 7.72255 5.57574 8.34505 5.80907C8.96755 6.0424 9.36755 6.16074 9.54171 6.16074C9.67338 6.16074 10.1159 6.02157 10.8692 5.74574C11.58 5.4899 12.18 5.38407 12.6717 5.42574C14.005 5.53324 15.0059 6.05824 15.6717 7.0049C14.48 7.7274 13.8909 8.73824 13.9025 10.0357C13.9125 11.0466 14.28 11.8874 15 12.5549C15.3184 12.8595 15.6898 13.1033 16.0959 13.2741C16.0075 13.5299 15.9142 13.7741 15.8159 14.0091ZM12.76 1.98324C12.76 2.7749 12.47 3.5149 11.8942 4.19907C11.1975 5.0124 10.3559 5.48324 9.44338 5.40907C9.43144 5.30952 9.4256 5.20933 9.42588 5.10907C9.42588 4.34824 9.75588 3.5349 10.345 2.86907C10.6384 2.5324 11.0117 2.25157 11.4642 2.02824C11.9159 1.80824 12.3425 1.68657 12.7442 1.66574C12.755 1.7724 12.76 1.87824 12.76 1.98324Z" fill="#EEEEEE"/>
</svg>
