<svg width="20" height="20" viewBox="0 0 20 20" fill="none" xmlns="http://www.w3.org/2000/svg">
<path d="M3.33335 16.6667C2.87502 16.6667 2.48266 16.5035 2.15627 16.1771C1.82988 15.8507 1.66669 15.4583 1.66669 15V5C1.66669 4.54167 1.82988 4.14931 2.15627 3.82292C2.48266 3.49653 2.87502 3.33333 3.33335 3.33333H16.6667C17.125 3.33333 17.5174 3.49653 17.8438 3.82292C18.1702 4.14931 18.3334 4.54167 18.3334 5V15C18.3334 15.4583 18.1702 15.8507 17.8438 16.1771C17.5174 16.5035 17.125 16.6667 16.6667 16.6667H3.33335ZM10 10.8333L3.33335 6.66667V15H16.6667V6.66667L10 10.8333ZM10 9.16667L16.6667 5H3.33335L10 9.16667ZM3.33335 6.66667V5V15V6.66667Z" fill="#5F6368"/>
</svg>
