<svg width="149" height="18" viewBox="0 0 149 18" fill="none" xmlns="http://www.w3.org/2000/svg">
<rect y="3" width="64" height="13" rx="6.5" fill="#C6802E"/>
<circle cx="75.5" cy="9.5" r="6.5" fill="#C6802E"/>
<circle cx="93.5" cy="9.5" r="6.5" fill="#C6802E"/>
<path d="M120.992 15H118.256L113.68 8.056V15H110.944V3.688H113.68L118.256 10.696V3.688H120.992V15ZM131.362 10.296C131.362 10.52 131.335 10.7653 131.282 11.032H125.09C125.122 11.704 125.292 12.1893 125.602 12.488C125.911 12.776 126.306 12.92 126.786 12.92C127.191 12.92 127.527 12.8187 127.794 12.616C128.06 12.4133 128.236 12.152 128.322 11.832H131.218C131.1 12.4613 130.844 13.0267 130.45 13.528C130.055 14.0187 129.554 14.408 128.946 14.696C128.338 14.9733 127.66 15.112 126.914 15.112C126.039 15.112 125.26 14.9307 124.578 14.568C123.906 14.1947 123.378 13.6613 122.993 12.968C122.61 12.2747 122.418 11.464 122.418 10.536C122.418 9.59733 122.604 8.78667 122.978 8.104C123.362 7.41067 123.895 6.88267 124.578 6.52C125.26 6.14667 126.039 5.96 126.914 5.96C127.799 5.96 128.578 6.14133 129.25 6.504C129.922 6.86667 130.439 7.37867 130.802 8.04C131.175 8.69067 131.362 9.44267 131.362 10.296ZM128.594 9.88C128.604 9.29333 128.444 8.856 128.114 8.568C127.794 8.26933 127.394 8.12 126.914 8.12C126.412 8.12 125.996 8.26933 125.666 8.568C125.335 8.86667 125.148 9.304 125.106 9.88H128.594ZM138.372 15L136.548 12.456L135.06 15H132.052L135.012 10.344L131.94 6.072H135.012L136.82 8.584L138.308 6.072H141.316L138.292 10.616L141.444 15H138.372ZM147.531 12.648V15H146.299C145.254 15 144.438 14.744 143.851 14.232C143.275 13.7093 142.987 12.8507 142.987 11.656V8.376H141.787V6.072H142.987V3.88H145.723V6.072H147.515V8.376H145.723V11.704C145.723 12.056 145.793 12.3013 145.931 12.44C146.081 12.5787 146.326 12.648 146.667 12.648H147.531Z" fill="#C6AD2E"/>
</svg>
