<svg width="23" height="23" viewBox="0 0 23 23" fill="none" xmlns="http://www.w3.org/2000/svg">
<path d="M11.4987 11.4997C10.4445 11.4997 9.5421 11.1243 8.79141 10.3736C8.04071 9.62294 7.66537 8.72051 7.66537 7.66634C7.66537 6.61217 8.04071 5.70974 8.79141 4.95905C9.5421 4.20836 10.4445 3.83301 11.4987 3.83301C12.5529 3.83301 13.4553 4.20836 14.206 4.95905C14.9567 5.70974 15.332 6.61217 15.332 7.66634C15.332 8.72051 14.9567 9.62294 14.206 10.3736C13.4553 11.1243 12.5529 11.4997 11.4987 11.4997ZM3.83203 19.1663V16.483C3.83203 15.94 3.97179 15.4408 4.2513 14.9856C4.53082 14.5304 4.90217 14.183 5.36536 13.9434C6.35564 13.4483 7.36189 13.0769 8.38412 12.8294C9.40634 12.5818 10.4445 12.458 11.4987 12.458C12.5529 12.458 13.5911 12.5818 14.6133 12.8294C15.6355 13.0769 16.6418 13.4483 17.632 13.9434C18.0952 14.183 18.4666 14.5304 18.7461 14.9856C19.0256 15.4408 19.1654 15.94 19.1654 16.483V19.1663H3.83203ZM5.7487 17.2497H17.2487V16.483C17.2487 16.3073 17.2048 16.1476 17.1169 16.0038C17.0291 15.8601 16.9133 15.7483 16.7695 15.6684C15.907 15.2372 15.0365 14.9137 14.1581 14.6981C13.2796 14.4825 12.3931 14.3747 11.4987 14.3747C10.6043 14.3747 9.7178 14.4825 8.83932 14.6981C7.96085 14.9137 7.09036 15.2372 6.22786 15.6684C6.08411 15.7483 5.96832 15.8601 5.88047 16.0038C5.79262 16.1476 5.7487 16.3073 5.7487 16.483V17.2497ZM11.4987 9.58301C12.0258 9.58301 12.477 9.39533 12.8523 9.01999C13.2277 8.64464 13.4154 8.19343 13.4154 7.66634C13.4154 7.13926 13.2277 6.68804 12.8523 6.3127C12.477 5.93735 12.0258 5.74967 11.4987 5.74967C10.9716 5.74967 10.5204 5.93735 10.1451 6.3127C9.76971 6.68804 9.58203 7.13926 9.58203 7.66634C9.58203 8.19343 9.76971 8.64464 10.1451 9.01999C10.5204 9.39533 10.9716 9.58301 11.4987 9.58301Z" fill="#ABAFAC"/>
</svg>
