<svg width="20" height="20" viewBox="0 0 20 20" fill="none" xmlns="http://www.w3.org/2000/svg">
<path d="M10.7954 9.68008L13.2596 7.21592L5.30041 2.74258C4.77291 2.45758 4.27874 2.41758 3.84541 2.72925L10.7954 9.68008ZM13.6796 12.5651L16.2412 11.1242C16.7412 10.8442 17.0154 10.4476 17.0154 10.0076C17.0154 9.56842 16.7412 9.17092 16.2421 8.89091L13.9229 7.58842L11.3121 10.1984L13.6796 12.5651ZM3.41707 3.33508C3.36374 3.49925 3.33374 3.68258 3.33374 3.88341V16.1376C3.33374 16.4551 3.40374 16.7284 3.53041 16.9459L10.2779 10.1976L3.41707 3.33508ZM10.7954 10.7142L4.08541 17.4251C4.21374 17.4742 4.35207 17.5001 4.49791 17.5001C4.75791 17.5001 5.02874 17.4234 5.30457 17.2701L13.0171 12.9392L10.7954 10.7142Z" fill="#FBFBFB"/>
</svg>
