<svg width="18" height="18" viewBox="0 0 18 18" fill="none" xmlns="http://www.w3.org/2000/svg">
<g clip-path="url(#clip0_1_1030)">
<path d="M9 0.28125C4.18331 0.28125 0.28125 4.18387 0.28125 9C0.28125 13.8161 4.18387 17.7188 9 17.7188C13.8167 17.7188 17.7188 13.8161 17.7188 9C17.7188 4.18387 13.8161 0.28125 9 0.28125ZM13.2823 6.25444L11.8513 12.9977C11.7456 13.4758 11.4609 13.5917 11.0638 13.3667L8.88412 11.7602L7.83281 12.7727C7.71694 12.8886 7.6185 12.987 7.3935 12.987L7.54819 10.7685L11.5875 7.119C11.7636 6.96431 11.5487 6.87656 11.3164 7.03125L6.32419 10.1739L4.17263 9.50231C3.70519 9.35494 3.6945 9.03487 4.27106 8.80987L12.6771 5.56819C13.0674 5.42756 13.4083 5.66325 13.2817 6.25387L13.2823 6.25444Z" fill="#2F2C2C"/>
</g>
<defs>
<clipPath id="clip0_1_1030">
<rect width="18" height="18" fill="white"/>
</clipPath>
</defs>
</svg>
