<svg width="18" height="18" viewBox="0 0 18 18" fill="none" xmlns="http://www.w3.org/2000/svg">
<path d="M15.5841 5.62129C15.5913 5.76709 15.594 5.91469 15.594 6.06049C15.594 10.5515 12.1767 15.7283 5.92803 15.7283C4.00833 15.7283 2.22363 15.1658 0.719727 14.201C1.60926 14.3086 2.51128 14.2398 3.37422 13.9986C4.23716 13.7573 5.0441 13.3484 5.74893 12.7952C5.0401 12.7818 4.35318 12.5472 3.78421 12.1243C3.21523 11.7013 2.79264 11.1112 2.57553 10.4363C3.08498 10.5316 3.6093 10.5116 4.11003 10.3778C3.34108 10.2219 2.64969 9.80488 2.15302 9.1975C1.65635 8.59011 1.38496 7.82969 1.38483 7.04509V7.00279C1.8566 7.26523 2.38424 7.41118 2.92383 7.42849C2.20371 6.94841 1.69396 6.21162 1.4986 5.36848C1.30325 4.52535 1.43702 3.63944 1.87263 2.89159C2.72564 3.9414 3.78994 4.80004 4.99642 5.41173C6.20289 6.02341 7.52454 6.37447 8.87553 6.44209C8.81708 6.18795 8.78779 5.92797 8.78823 5.66719C8.78823 5.22118 8.87609 4.77955 9.04679 4.3675C9.2175 3.95546 9.46771 3.58108 9.78312 3.26575C10.0985 2.95042 10.473 2.70031 10.8851 2.52971C11.2972 2.35912 11.7388 2.27137 12.1848 2.27149C12.6496 2.27073 13.1097 2.36548 13.5363 2.54987C13.963 2.73426 14.3473 3.00435 14.6652 3.34339C15.4258 3.19282 16.1553 2.91405 16.8225 2.51899C16.5688 3.30577 16.0378 3.97359 15.3285 4.39819C16.002 4.31835 16.6596 4.13816 17.2797 3.86359C16.8242 4.54618 16.2499 5.14151 15.5841 5.62129Z" fill="#2F2C2C"/>
</svg>
