<svg width="18" height="18" viewBox="0 0 18 18" fill="none" xmlns="http://www.w3.org/2000/svg">
<path d="M15.1196 5.12969C12.9596 1.79969 8.54956 0.809695 5.12956 2.87969C1.79956 4.94969 0.719558 9.4497 2.87956 12.7797L3.05956 13.0497L2.33956 15.7497L5.03956 15.0297L5.30956 15.2097C6.47956 15.8397 7.73956 16.1997 8.99956 16.1997C10.3496 16.1997 11.6996 15.8397 12.8696 15.1197C16.1996 12.9597 17.1896 8.5497 15.1196 5.12969ZM13.2296 12.0597C12.8696 12.5997 12.4196 12.9597 11.7896 13.0497C11.4296 13.0497 10.9796 13.2297 9.17956 12.5097C7.64956 11.7897 6.38956 10.6197 5.48956 9.2697C4.94956 8.6397 4.67956 7.8297 4.58956 7.0197C4.58956 6.2997 4.85956 5.6697 5.30956 5.2197C5.48956 5.0397 5.66956 4.94969 5.84956 4.94969H6.29956C6.47956 4.94969 6.65956 4.9497 6.74956 5.3097C6.92956 5.7597 7.37956 6.83969 7.37956 6.92969C7.46956 7.01969 7.46956 7.1997 7.37956 7.2897C7.46956 7.4697 7.37956 7.6497 7.28956 7.7397C7.19956 7.8297 7.10956 8.0097 7.01956 8.0997C6.83956 8.18969 6.74956 8.3697 6.83956 8.5497C7.19956 9.08969 7.64956 9.62969 8.09956 10.0797C8.63956 10.5297 9.17956 10.8897 9.80956 11.1597C9.98956 11.2497 10.1696 11.2497 10.2596 11.0697C10.3496 10.8897 10.7996 10.4397 10.9796 10.2597C11.1596 10.0797 11.2496 10.0797 11.4296 10.1697L12.8696 10.8897C13.0496 10.9797 13.2296 11.0697 13.3196 11.1597C13.4096 11.4297 13.4096 11.7897 13.2296 12.0597Z" fill="#2F2C2C"/>
</svg>
